<mxfile host="app.diagrams.net" modified="2024-04-22T08:59:53.241Z" agent="Mozilla/5.0 (Macintosh; Intel Mac OS X 10_15_7) AppleWebKit/537.36 (KHTML, like Gecko) Chrome/123.0.0.0 Safari/537.36" etag="-ZGcSUF7B3KfZQqzMPi2" version="24.2.3" type="github">
  <diagram name="第 1 页" id="HJZZbbWwwr_45lJUhroJ">
    <mxGraphModel dx="1366" dy="749" grid="1" gridSize="10" guides="1" tooltips="1" connect="1" arrows="1" fold="1" page="1" pageScale="1" pageWidth="827" pageHeight="1169" math="0" shadow="0">
      <root>
        <mxCell id="0" />
        <mxCell id="1" parent="0" />
        <mxCell id="e0I3Ta8vUyWHO6xIood7-4" value="" style="edgeStyle=orthogonalEdgeStyle;rounded=0;orthogonalLoop=1;jettySize=auto;html=1;" edge="1" parent="1" source="e0I3Ta8vUyWHO6xIood7-2" target="e0I3Ta8vUyWHO6xIood7-3">
          <mxGeometry relative="1" as="geometry" />
        </mxCell>
        <mxCell id="e0I3Ta8vUyWHO6xIood7-11" value="" style="edgeStyle=orthogonalEdgeStyle;rounded=0;orthogonalLoop=1;jettySize=auto;html=1;" edge="1" parent="1" target="e0I3Ta8vUyWHO6xIood7-10">
          <mxGeometry relative="1" as="geometry">
            <mxPoint x="370" y="240" as="sourcePoint" />
            <Array as="points">
              <mxPoint x="370" y="280" />
              <mxPoint x="200" y="280" />
            </Array>
          </mxGeometry>
        </mxCell>
        <mxCell id="e0I3Ta8vUyWHO6xIood7-18" value="" style="edgeStyle=orthogonalEdgeStyle;rounded=0;orthogonalLoop=1;jettySize=auto;html=1;entryX=0.5;entryY=0;entryDx=0;entryDy=0;entryPerimeter=0;" edge="1" parent="1" source="e0I3Ta8vUyWHO6xIood7-2" target="e0I3Ta8vUyWHO6xIood7-7">
          <mxGeometry relative="1" as="geometry">
            <mxPoint x="510" y="210" as="targetPoint" />
          </mxGeometry>
        </mxCell>
        <mxCell id="e0I3Ta8vUyWHO6xIood7-2" value="user" style="rounded=1;whiteSpace=wrap;html=1;" vertex="1" parent="1">
          <mxGeometry x="310" y="180" width="120" height="60" as="geometry" />
        </mxCell>
        <mxCell id="e0I3Ta8vUyWHO6xIood7-6" value="" style="edgeStyle=orthogonalEdgeStyle;rounded=0;orthogonalLoop=1;jettySize=auto;html=1;" edge="1" parent="1" source="e0I3Ta8vUyWHO6xIood7-3">
          <mxGeometry relative="1" as="geometry">
            <mxPoint x="510" y="350" as="targetPoint" />
          </mxGeometry>
        </mxCell>
        <mxCell id="e0I3Ta8vUyWHO6xIood7-3" value="account" style="whiteSpace=wrap;html=1;rounded=1;" vertex="1" parent="1">
          <mxGeometry x="310" y="320" width="120" height="60" as="geometry" />
        </mxCell>
        <mxCell id="e0I3Ta8vUyWHO6xIood7-7" value="mq" style="shape=cylinder3;whiteSpace=wrap;html=1;boundedLbl=1;backgroundOutline=1;size=15;" vertex="1" parent="1">
          <mxGeometry x="510" y="310" width="60" height="80" as="geometry" />
        </mxCell>
        <mxCell id="e0I3Ta8vUyWHO6xIood7-10" value="风控" style="whiteSpace=wrap;html=1;rounded=1;" vertex="1" parent="1">
          <mxGeometry x="140" y="320" width="120" height="60" as="geometry" />
        </mxCell>
        <mxCell id="e0I3Ta8vUyWHO6xIood7-14" value="" style="edgeStyle=orthogonalEdgeStyle;rounded=0;orthogonalLoop=1;jettySize=auto;html=1;" edge="1" parent="1" source="e0I3Ta8vUyWHO6xIood7-13" target="e0I3Ta8vUyWHO6xIood7-2">
          <mxGeometry relative="1" as="geometry" />
        </mxCell>
        <mxCell id="e0I3Ta8vUyWHO6xIood7-16" value="" style="edgeStyle=orthogonalEdgeStyle;rounded=0;orthogonalLoop=1;jettySize=auto;html=1;entryX=1;entryY=0.25;entryDx=0;entryDy=0;exitX=1;exitY=0.5;exitDx=0;exitDy=0;" edge="1" parent="1" source="e0I3Ta8vUyWHO6xIood7-13" target="e0I3Ta8vUyWHO6xIood7-3">
          <mxGeometry relative="1" as="geometry">
            <mxPoint x="510" y="80" as="targetPoint" />
          </mxGeometry>
        </mxCell>
        <mxCell id="e0I3Ta8vUyWHO6xIood7-13" value="APP" style="rounded=0;whiteSpace=wrap;html=1;" vertex="1" parent="1">
          <mxGeometry x="310" y="50" width="120" height="60" as="geometry" />
        </mxCell>
      </root>
    </mxGraphModel>
  </diagram>
</mxfile>
